<?xml version="1.0" encoding="UTF-8" standalone="no"?>
<!-- Generator: Adobe Illustrator 16.0.0, SVG Export Plug-In . SVG Version: 6.00 Build 0)  -->

<svg
   version="1.0"
   id="Layer_1"
   x="0px"
   y="0px"
   width="175"
   height="175"
   viewBox="0 0 175 175.00001"
   enable-background="new 0 0 837.659 269.162"
   xml:space="preserve"
   sodipodi:docname="asee.svg"
   inkscape:version="1.3.2 (091e20ef0f, 2023-11-25)"
   xmlns:inkscape="http://www.inkscape.org/namespaces/inkscape"
   xmlns:sodipodi="http://sodipodi.sourceforge.net/DTD/sodipodi-0.dtd"
   xmlns="http://www.w3.org/2000/svg"
   xmlns:svg="http://www.w3.org/2000/svg"><defs
   id="defs14" /><sodipodi:namedview
   id="namedview14"
   pagecolor="#505050"
   bordercolor="#ffffff"
   borderopacity="1"
   inkscape:showpageshadow="0"
   inkscape:pageopacity="0"
   inkscape:pagecheckerboard="1"
   inkscape:deskcolor="#d1d1d1"
   inkscape:zoom="1.8166029"
   inkscape:cx="144.50048"
   inkscape:cy="94.682223"
   inkscape:window-width="1588"
   inkscape:window-height="933"
   inkscape:window-x="0"
   inkscape:window-y="0"
   inkscape:window-maximized="1"
   inkscape:current-layer="Layer_1" />
<g
   id="g14"
   style="display:inline"
   inkscape:label="g14"
   transform="translate(-30.102575,-26.239458)">
	<path
   fill="#2ba1dc"
   d="m 191.522,71.288 c -3.867,-13.768 -9.115,-26.345 -15.389,-25.827 -9.963,0.827 -19.688,27.853 -25.632,48.204 -2.22,7.59 -2.22,14.934 -0.833,22.245 0.3,1.583 0.661,3.14 1.09,4.669 1.554,5.529 4.008,10.696 7.766,15.426 12.875,16.186 31.646,36.895 41.102,33.415 12.375,-4.551 0.121,-59.212 -0.865,-64.39 -0.508,-2.687 -3.071,-18.906 -7.239,-33.742"
   id="path1" />
	<path
   fill="#2ba1dc"
   d="m 153.266,42.442 c -0.312,-1.113 -0.89,-1.974 -1.771,-2.537 -9.734,-6.217 -62.287,35.449 -67.341,39.264 -4.904,3.709 -56.816,41.106 -53.956,51.285 0.084,0.3 0.215,0.575 0.396,0.826 4.847,6.707 37.144,-2.483 60.921,-10.395 8.86,-2.954 16.583,-7.36 23.711,-12.748 7.128,-5.388 13.156,-11.369 17.585,-18.464 10.458,-16.764 22.78,-38.953 20.455,-47.231"
   id="path2" />
	<path
   fill="#2ba1dc"
   d="m 179.46,180.655 c -2.461,-8.76 -20.776,-23.011 -35.745,-33.454 -6.652,-4.637 -14.369,-7.575 -22.885,-9.499 -8.514,-1.919 -17.215,-2.688 -26.44,-1.631 -24.735,2.833 -57.774,8.125 -59.791,16.355 -0.117,0.476 -0.102,0.956 0.034,1.438 2.937,10.456 62.409,22.386 68.17,23.688 6.033,1.36 69.511,17.313 76.199,7.455 0.819,-1.206 0.928,-2.68 0.458,-4.352"
   id="path3" />
</g>
</svg>
