<?xml version="1.0" encoding="UTF-8" standalone="no"?>
<svg
   width="112.24"
   height="88.489998"
   version="1.1"
   id="svg56"
   sodipodi:docname="logo_utcn.svg"
   inkscape:version="1.2.2 (b0a8486541, 2022-12-01)"
   xmlns:inkscape="http://www.inkscape.org/namespaces/inkscape"
   xmlns:sodipodi="http://sodipodi.sourceforge.net/DTD/sodipodi-0.dtd"
   xmlns="http://www.w3.org/2000/svg"
   xmlns:svg="http://www.w3.org/2000/svg">
  <defs
     id="defs60" />
  <sodipodi:namedview
     id="namedview58"
     pagecolor="#505050"
     bordercolor="#ffffff"
     borderopacity="1"
     inkscape:showpageshadow="0"
     inkscape:pageopacity="0"
     inkscape:pagecheckerboard="1"
     inkscape:deskcolor="#505050"
     showgrid="false"
     inkscape:zoom="1.5324675"
     inkscape:cx="58.076271"
     inkscape:cy="76.347458"
     inkscape:window-width="1268"
     inkscape:window-height="733"
     inkscape:window-x="0"
     inkscape:window-y="0"
     inkscape:window-maximized="1"
     inkscape:current-layer="svg56" />
  <path
     fill-rule="evenodd"
     d="m 0,0.01 v 5.2 h 27 c 5.4,0.07 7.23,5 7.23,8 v 71.15 c 5.88,2.48 12.28,3.94 18.97,4.13 V 4.79 c 0,-3.52 -1.74,-4.78 -5.62,-4.78 z m 64.65,0 c -3.87,0 -5.6,1.26 -5.6,4.8 v 83.68 c 6.68,-0.2 13.08,-1.65 18.97,-4.13 V 13.2 c 0,-2.98 1.82,-7.92 7.22,-8 h 27 V 0 Z"
     id="path52" />
  <path
     fill="#bf0000"
     fill-rule="evenodd"
     d="m 0,11.39 v 22.92 c 0,18.3 5.03,31.53 19.5,42.38 2.54,1.9 5.7,3.7 8.58,5.06 V 16.72 c 0,-3.45 -2.73,-5.34 -6.6,-5.34 z m 90.76,0 c -3.87,0 -6.6,1.9 -6.6,5.34 v 65.03 c 2.86,-1.38 6.03,-3.16 8.6,-5.07 14.45,-10.85 19.48,-24.1 19.48,-42.38 V 11.39 Z"
     id="path54" />
</svg>
